# xmcd
#
# Track frame offsets:
#	150
#	15813
#	30353
#	42215
#	57210
#	68567
#	81808
#	94813
#	115645
#	127475
#	140367
#	158114
#	172342
#	186025
#	199035
#	211818
#
# Disc length: 3088 seconds
#
# Revision: 2
# Processed by: cddbd v1.5.2PL0 Copyright (c) Steve Scherf et al.
# Submitted via: audiograbber 1.83.01
#
DISCID=d00c0e10
DTITLE=Frank Sinatra - New York New York
DYEAR=1989
DGENRE=Variété internationale
TTITLE0=New York New York
TTITLE1=I Get A Kick Out Of You
TTITLE2=Something Stupid
TTITLE3=Moon River
TTITLE4=What Now My Love
TTITLE5=Summer Wind
TTITLE6=Mrs. Robinson
TTITLE7=My Way
TTITLE8=Strangers In The Night
TTITLE9=For Once in My Life
TTITLE10=Yesterday
TTITLE11=That's Life
TTITLE12=The Girl From Ipanema
TTITLE13=The Lady Is A Tramp
TTITLE14=Bad Bad Leroy Brown
TTITLE15=Old Man River
EXTD=
EXTT0=
EXTT1=
EXTT2=
EXTT3=
EXTT4=
EXTT5=
EXTT6=
EXTT7=
EXTT8=
EXTT9=
EXTT10=
EXTT11=
EXTT12=
EXTT13=
EXTT14=
EXTT15=
PLAYORDER=
